<?xml version="1.0" encoding="UTF-8" standalone="no"?>
<!-- Created with Inkscape (http://www.inkscape.org/) -->

<svg
   width="210mm"
   height="297mm"
   viewBox="0 0 210 297"
   version="1.1"
   id="svg5"
   inkscape:version="1.1.1 (3bf5ae0d25, 2021-09-20, custom)"
   sodipodi:docname="background.svg"
   xmlns:inkscape="http://www.inkscape.org/namespaces/inkscape"
   xmlns:sodipodi="http://sodipodi.sourceforge.net/DTD/sodipodi-0.dtd"
   xmlns="http://www.w3.org/2000/svg"
   xmlns:svg="http://www.w3.org/2000/svg">
  <sodipodi:namedview
     id="namedview7"
     pagecolor="#ffffff"
     bordercolor="#999999"
     borderopacity="1"
     inkscape:pageshadow="0"
     inkscape:pageopacity="0"
     inkscape:pagecheckerboard="0"
     inkscape:document-units="mm"
     showgrid="false"
     showguides="true"
     inkscape:guide-bbox="true"
     inkscape:snap-page="true"
     inkscape:zoom="2"
     inkscape:cx="228"
     inkscape:cy="89.75"
     inkscape:window-width="1999"
     inkscape:window-height="1332"
     inkscape:window-x="1856"
     inkscape:window-y="312"
     inkscape:window-maximized="0"
     inkscape:current-layer="layer1">
    <sodipodi:guide
       position="30,267"
       orientation="0,1"
       id="guide1033"
       inkscape:label=""
       inkscape:locked="false"
       inkscape:color="rgb(224,27,36)" />
    <sodipodi:guide
       position="30,267"
       orientation="-1,0"
       id="guide1035"
       inkscape:label=""
       inkscape:locked="false"
       inkscape:color="rgb(224,27,36)" />
    <sodipodi:guide
       position="185,267"
       orientation="-1,0"
       id="guide1037"
       inkscape:label=""
       inkscape:locked="false"
       inkscape:color="rgb(224,27,36)" />
    <sodipodi:guide
       position="30,280"
       orientation="0,1"
       id="guide1039"
       inkscape:label=""
       inkscape:locked="false"
       inkscape:color="rgb(0,0,255)" />
    <sodipodi:guide
       position="29.999999,276.75"
       orientation="0,1"
       id="guide979"
       inkscape:label=""
       inkscape:locked="false"
       inkscape:color="rgb(0,0,255)" />
    <sodipodi:guide
       position="30,25"
       orientation="0,1"
       id="guide981"
       inkscape:label=""
       inkscape:locked="false"
       inkscape:color="rgb(224,27,36)" />
    <sodipodi:guide
       position="30,18.5"
       orientation="0,1"
       id="guide37796"
       inkscape:label=""
       inkscape:locked="false"
       inkscape:color="rgb(0,0,255)" />
  </sodipodi:namedview>
  <defs
     id="defs2" />
  <g
     inkscape:label="Layer 1"
     inkscape:groupmode="layer"
     id="layer1">
    <text
       xml:space="preserve"
       style="font-style:normal;font-weight:normal;font-size:0.352778px;line-height:0.85;font-family:sans-serif;letter-spacing:0px;word-spacing:0px;fill:#000000;fill-opacity:1;stroke:none;stroke-width:0.264583"
       x="-0.033539932"
       y="296.64185"
       id="text14549"><tspan
         sodipodi:role="line"
         style="font-size:0.352778px;fill:#ffffff;stroke-width:0.264583"
         x="-0.033539932"
         y="296.70013"
         id="tspan21451">https://github.com/ictorg/ipa-template</tspan><tspan
         sodipodi:role="line"
         style="font-size:0.352778px;fill:#ffffff;stroke-width:0.264583"
         x="-0.033539932"
         y="297"
         id="tspan21455">Robin Bühler</tspan></text>
    <rect
       style="fill:#f2f2f2;stroke-width:1.35;paint-order:markers stroke fill"
       id="rect37820"
       width="210"
       height="20.25"
       x="0"
       y="0" />
    <rect
       style="fill:#f2f2f2;stroke-width:1.35;paint-order:markers stroke fill"
       id="rect37844"
       width="209.99925"
       height="18.5"
       x="0.00075117551"
       y="278.5" />
    <path
       style="fill:none;stroke:#0076bd;stroke-width:0.75;stroke-linecap:butt;stroke-linejoin:miter;stroke-miterlimit:4;stroke-dasharray:none;stroke-opacity:1"
       d="M 0,20.25 H 210"
       id="path37959" />
    <path
       style="fill:none;stroke:#0076bd;stroke-width:0.75;stroke-linecap:butt;stroke-linejoin:miter;stroke-miterlimit:4;stroke-dasharray:none;stroke-opacity:1"
       d="M 0,278.5 H 210"
       id="path37959-3" />
    <g
       id="g39065"
       transform="matrix(0.8952357,0,0,0.8952357,98.570457,304.67531)"
       style="fill:#e6e6e6">
      <path
         d="m 8.9374015,-24.631247 c -0.042333,0.08819 -0.117475,0.201436 -0.1982612,0.239889 0.1277056,0.02258 0.3443112,0.06809 0.5041195,0.05045 0.200025,-0.02152 0.3203223,-0.20708 0.2137834,-0.395464 -0.00776,-0.01305 -0.00423,-0.0508 0.045155,-0.02399 0.24765,0.134056 0.1961445,0.4953 -0.061736,0.587728 -0.2465917,0.08855 -0.5528028,-0.0441 -0.7690556,-0.08043 0.032103,0.05821 0.054681,0.132292 0.058914,0.174272 0.060325,0.01623 0.2113139,0.05962 0.2056695,0.115711 -0.021872,0.171097 -0.054328,0.376061 -0.1252362,0.534459 -0.063147,0.141111 -0.1774472,0.304447 -0.3167944,0.322791 0.028222,-0.488597 -0.5157612,-0.151694 -0.8233834,-0.252589 -0.027517,0.347487 0.5171722,0.439914 1.0989028,0.688975 0.3033889,0.130175 0.6000751,0.290689 0.7976306,0.592314 0.2303639,-0.17533 0.4254501,-0.280105 0.7302505,-0.435327 0.1143,-0.05821 0.21978,-0.111478 0.242005,-0.220134 0.01764,-0.08573 0.0081,-0.313266 -0.0099,-0.44838 -0.09102,-0.678392 0.567619,-1.052337 1.010708,-0.708025 -0.01199,0.01975 -0.02505,0.05115 -0.02787,0.08396 0.13723,0.03528 0.282927,0.123825 0.375708,0.214136 -0.02893,0.03351 -0.05115,0.06844 -0.06491,0.108655 0.110067,0.04798 0.255058,0.166864 0.300919,0.287161 -0.05503,0.04798 -0.119944,0.147109 -0.14358,0.196851 -0.0829,0.174272 -0.08361,0.394758 -0.121003,0.593725 -0.03246,0.173213 -0.09878,0.36583 -0.20955,0.496711 -0.240947,0.285044 -0.735895,0.443441 -0.980017,0.743655 -0.08325,0.102306 -0.08431,0.322439 0.05997,0.374298 -0.137936,0.173919 -0.368652,0.201436 -0.517172,0.183091 0.02611,0.109009 0.148167,0.170039 0.210256,0.176036 -0.207434,0.414161 -0.5736172,0.207081 -0.75177,0.319617 -0.017286,0.05397 -0.030339,0.08678 -0.046214,0.122767 0.3009195,0.0515 0.620537,0.158397 0.80257,0.23248 0.160161,0.06491 0.402519,0.207434 0.62865,0.124531 0.138289,-0.0508 0.269522,-0.192617 0.394758,-0.287161 0.166159,-0.125589 0.350309,-0.26917 0.699559,-0.227542 0.310091,0.03669 0.637469,0.331964 0.610658,0.813506 -0.03528,-0.0046 -0.06456,-0.0042 -0.09031,0 0.01411,0.07373 0.03281,0.236714 0.0187,0.335491 -0.04657,-0.0071 -0.0822,-0.0039 -0.109008,0.0014 0.0071,0.08925 -0.01835,0.272345 -0.07796,0.381 -0.0889,-0.02999 -0.222603,-0.05186 -0.339725,-0.01411 -0.327378,0.105481 -0.544689,0.459317 -1.062567,0.415925 -0.122061,-0.01023 -0.279047,-0.03845 -0.401461,-0.06597 -0.115711,-0.02646 -0.282575,-0.08855 -0.363008,-0.07691 -0.09349,0.01305 -0.09913,0.07373 -0.11677,0.174625 -0.2293058,-0.03845 -0.365478,-0.167216 -0.3996974,-0.298097 -0.1019528,0.07338 -0.093839,0.204964 -0.09525,0.323497 -0.1982612,-0.01834 -0.3785306,-0.09102 -0.4776612,-0.234597 -0.071614,0.144286 -0.2575278,0.28187 -0.4737806,0.276578 0.013053,-0.09066 -0.00141,-0.236008 -0.099483,-0.328789 -0.1308806,0.160867 -0.2772834,0.282575 -0.4885973,0.433211 0.3940528,0.197908 0.836789,0.456142 1.2220223,0.785989 0.351014,0.300567 0.7655282,0.775053 0.7874002,1.259417 0.02364,0.521758 -0.3513668,0.822678 -0.6519335,1.04528 -0.2973917,0.220134 -0.5457472,0.397934 -0.8297334,0.587728 -0.026458,0.01658 -0.024694,0.03104 -0.017639,0.05256 0.068086,0.197909 0.1696862,0.392642 0.2825751,0.537634 0.064205,0.0822 0.1926166,0.233891 0.320675,0.237772 0.1975556,0.0064 0.4780139,-0.173567 0.7037918,-0.202142 0.493183,-0.06244 0.851253,0.35172 0.693561,0.889706 -0.03104,-0.01552 -0.07444,-0.02258 -0.101953,-0.01905 0.0053,0.161219 -0.04868,0.331258 -0.09525,0.424039 -0.03986,-0.02611 -0.08573,-0.04057 -0.117475,-0.04516 -0.02434,0.13335 -0.09737,0.311856 -0.189088,0.400403 -0.06421,-0.05574 -0.16757,-0.08608 -0.2271896,-0.09278 -0.701675,-0.02963 -1.025525,0.0635 -1.2759973,-0.09842 -0.079375,-0.05151 -0.1686277,-0.190147 -0.2402416,-0.284339 -0.074789,-0.09843 -0.1576917,-0.250825 -0.2356556,-0.270227 -0.098425,-0.02434 -0.1594556,0.01446 -0.20955,0.06526 -0.069497,-0.08784 -0.1128889,-0.221897 -0.093133,-0.33408 -0.091017,-0.02258 -0.1993194,0.05433 -0.2617611,0.116417 -0.0762,-0.103364 -0.1210028,-0.293864 -0.095956,-0.452967 -0.1217084,-0.02752 -0.2405945,0.05327 -0.3062112,0.13088 -0.1192389,-0.195086 -0.094544,-0.408869 -0.021872,-0.530225 -0.1651,-0.03281 -0.3086806,-0.147461 -0.3658306,-0.307269 0.2797528,-0.118886 0.3189111,-0.299156 0.4113389,-0.498828 0.1220612,-0.263878 0.900289,-0.293511 0.9824862,-0.665339 0.026458,-0.118886 -0.0127,-0.273755 -0.054681,-0.351719 -0.2091972,-0.388761 -0.8717139,-0.511175 -1.4393334,-0.507295 -0.022225,0.322086 -0.056444,0.5969 -0.1202972,0.835378 -0.059267,0.223308 -0.15875,0.439208 -0.2988028,0.595842 -0.1866195,0.208139 -0.5125861,0.325614 -0.8096251,0.413808 -0.2977444,0.08784 -0.5591528,0.146403 -0.8727722,0.220134 -0.051153,0.0056 0.025753,0.538338 0.1866194,0.883355 0.087489,0.187325 0.1202973,0.288925 0.276225,0.264936 0.1943806,-0.02928 0.4603751,-0.160161 0.7062612,-0.151341 0.5009445,0.01764 0.8512528,0.550686 0.5760861,1.094316 -0.032103,-0.01834 -0.056092,-0.03069 -0.083961,-0.03598 -0.01905,0.122767 -0.070908,0.244122 -0.1210028,0.325261 -0.041275,-0.02928 -0.072672,-0.04304 -0.1125361,-0.05539 -0.049742,0.153106 -0.1488722,0.282222 -0.23495,0.339725 -0.061736,-0.06385 -0.1471083,-0.121708 -0.2688167,-0.126294 -0.7563556,-0.02858 -1.0830278,0.08255 -1.3902973,-0.197203 -0.1005417,-0.09137 -0.1795639,-0.242006 -0.2455333,-0.394406 -0.1284112,-0.29845 -0.2307167,-0.462492 -0.4512028,-0.244828 -0.090664,-0.13723 -0.1012473,-0.310444 -0.041628,-0.424744 -0.099131,-0.03175 -0.2335389,0.01199 -0.3136195,0.05186 -0.079728,-0.141464 -0.06985,-0.37218 0.016581,-0.486128 -0.2077862,-0.02046 -0.4053417,-0.192969 -0.4437945,-0.422275 0.1188861,0.0032 0.2688167,-0.06033 0.352425,-0.142875 -0.1929694,-0.03951 -0.3478389,-0.207433 -0.3926417,-0.432152 0.1277056,0 0.27305,-0.02858 0.3541889,-0.09207 0.1837973,-0.143228 0.1259417,-0.432859 0.4102806,-0.528109 0.3414889,-0.113947 1.0092973,0.04022 1.0287001,-0.386644 0.00811,-0.178506 -0.1220611,-0.519289 -0.1778,-0.732014 -0.058914,-0.226131 -0.092075,-0.462492 -0.092075,-0.7239 -1.5751529,0.150283 -2.0799779,-0.893234 -2.0351752,-1.741311 0.036336,-0.691445 0.2853973,-1.171223 0.6861529,-1.969559 0.4938889,-0.983544 0.8523111,-1.691569 0.8219722,-2.367139 -0.014111,-0.307975 -0.1273527,-0.670983 -0.3566583,-0.735542 -0.43815,-0.122414 -0.6057195,0.37465 -0.3929945,0.630767 0.071967,0.08608 0.2106084,0.149578 0.3764139,0.132292 0.00564,0.228953 -0.1104194,0.369711 -0.2723444,0.407811 0.056444,0.4191 -0.1150056,0.772583 -0.4138084,0.936272 -0.00388,-0.04833 -0.016228,-0.08678 -0.028575,-0.132997 -0.2148417,0.167922 -0.6766278,0.344311 -0.9768417,0.141464 0.088547,-0.101247 0.1337028,-0.153811 0.1908528,-0.232481 0.1171222,-0.161219 0.2151944,-0.355247 0.2293055,-0.578203 0.014464,-0.232833 0.024342,-0.46108 0.028928,-0.651227 0.014464,-0.600781 0.4131028,-1.22167 1.1458223,-1.166989 0.6170084,0.04586 0.9666112,0.550333 0.9983612,1.225197 0.036689,0.778581 -0.3563056,1.671814 -0.8886473,2.919942 -0.2113139,0.495653 -0.4081639,1.011061 -0.3922889,1.408642 0.019756,0.489302 0.3464278,0.831497 0.8075084,0.843139 0.2811639,0.0071 0.62865,-0.128764 0.7743472,-0.276931 0.020108,-0.02081 0.039864,-0.04974 0.1188862,-0.159456 0.3517194,-0.488244 1.0727973,-0.803627 1.1154834,-1.574094 -0.2413,0.07408 -0.5520973,-0.07479 -0.6043084,-0.252589 0.2151945,-0.07973 0.3690056,-0.254353 0.3157361,-0.703086 -0.00388,-0.04233 -0.00953,-0.1016 -0.011289,-0.153459 -0.1192389,0.02011 -0.2166055,0.105128 -0.2734028,0.196498 -0.3912305,-0.403931 -0.1887361,-0.920045 -0.056092,-1.27882 -0.3009195,0.01446 -0.5422195,-0.216253 -0.5729112,-0.421217 0.1453445,-0.01905 0.2370667,-0.125588 0.2335389,-0.253294 -0.00282,-0.105481 -0.076905,-0.265994 -0.1351139,-0.392642 -0.1658055,-0.361244 -0.3259667,-0.724605 -0.3167944,-1.217436 -0.2155473,-0.1016 -0.3104445,-0.353836 -0.3044473,-0.55245 0.1848556,-0.0134 0.3164417,-0.1016 0.3220862,-0.219781 0.00459,-0.09384 0.020108,-0.269522 0.059619,-0.385586 -0.070908,-0.06914 -0.1837972,-0.279752 -0.072672,-0.526697 0.078669,0.01799 0.2024944,0.02152 0.2776361,-0.02011 0.032456,-0.01799 0.096308,-0.131939 0.2049639,-0.211314 -0.015875,-0.07691 -0.00106,-0.249061 0.084667,-0.35807 0.052917,0.02399 0.1382889,0.04727 0.22225,0.05574 0.365125,0.03704 1.2326056,-0.220486 1.8736029,0.02117 0.1337028,0.05009 0.2469445,0.126647 0.3302,0.209903 0.1273528,0.01376 0.2871611,0.04128 0.4448528,0.07691 0.3139723,0.0702 0.3076223,0.127 0.4247445,0.149578 0.047625,0.0092 0.1792111,0.0187 0.3104445,0.02999 0.1400527,0.01199 0.5436305,0.08573 0.6233583,0.17145 0.073025,0.07867 -0.00141,0.220134 0.00282,0.374297 0.00353,0.142875 0.075142,0.395464 -0.021872,0.564798 -0.031397,0.05503 -0.093486,0.08255 -0.1548694,0.09313 z m -2.5202446,-1.595967 c -0.6445251,-0.01975 -0.8688918,0.08149 -1.2647084,0.09842 -0.075847,-0.0021 -0.1365251,-0.02258 -0.1598084,-0.03316 -0.01905,0.04375 -0.026105,0.154164 -7.055e-4,0.206728 -0.2176639,0.129822 -0.2434167,0.384528 -0.5298723,0.338314 -0.018344,0.07867 0.029986,0.185914 0.085019,0.22613 0.029281,-0.01164 0.089958,-0.03281 0.080786,-0.0032 -0.1157112,0.327731 -0.092781,0.468489 -0.1220612,0.633589 -0.017639,0.09913 -0.1580444,0.189795 -0.2864555,0.215195 -0.00917,0.08714 0.046567,0.218369 0.168275,0.240242 0.073378,-0.14852 0.1816806,-0.17145 0.1626306,-0.125942 -0.031044,0.07549 -0.056797,0.210255 -0.058914,0.306917 -0.00776,0.324202 0.074789,0.652286 0.1781527,0.89288 0.2014362,0.468489 0.4512029,0.842786 0.1040695,1.062214 0.045156,0.108656 0.269875,0.184503 0.4356806,0.118181 0.068792,-0.180623 0.0254,-0.316089 0.016228,-0.361245 -0.00317,-0.01552 0.011994,-0.0187 0.029281,-0.0049 0.1012472,0.08502 0.1072445,0.252236 0.087842,0.385234 -0.051506,0.352425 -0.352425,0.788105 -0.1442861,1.19768 0.061736,-0.05644 0.1576916,-0.103011 0.2448278,-0.122414 0.014464,-0.213783 0.081844,-0.364772 0.2056694,-0.45473 0.073025,-0.05292 0.085372,-0.0194 0.065617,0.0028 -0.1531056,0.18662 -0.1425222,0.537633 -0.1016,0.853017 0.051153,0.3937 -0.073025,0.625475 -0.1912056,0.687564 0.1453445,0.09172 0.38735,0.03598 0.5115278,-0.02893 0.091017,-0.04727 0.2324806,-0.1651 0.2864556,-0.272697 -0.1379361,-0.236009 -0.1467556,-0.456848 -0.1114778,-0.599017 0.028575,-0.116769 0.093839,-0.157339 0.081845,-0.100894 -0.087842,0.496358 0.384175,0.724252 0.3735917,1.207911 0.2451805,-0.08043 0.3517194,-0.376061 0.3319639,-0.653698 0.00423,-0.03775 0.033867,-0.0187 0.047272,0.0187 0.1389944,0.395816 -0.1128889,0.947914 -0.581025,0.899583 0.065617,-0.233892 -0.011289,-0.508353 -0.079022,-0.64135 -0.059972,0.123119 -0.1735667,0.226836 -0.2818694,0.288219 -0.014817,0.12312 -0.042333,0.23107 -0.063853,0.320676 -0.077258,0.324555 -0.212725,0.550686 -0.4148667,0.757413 -0.4409723,0.452262 -0.6043084,0.488598 -0.8928806,0.907345 -0.062442,0.06456 -0.2532945,0.167922 -0.3633612,0.211314 -0.873125,0.344311 -1.6051389,-0.123825 -1.5469306,-1.06045 0.023283,-0.376414 0.2197806,-0.871361 0.3764139,-1.229431 0.4575528,-1.046692 0.8879417,-1.922286 0.9429751,-2.720975 0.045508,-0.65652 -0.2367139,-1.310922 -0.919339,-1.317625 -0.4639028,-0.0049 -0.9108723,0.375708 -0.92075,1.138767 -0.00564,0.450144 0.00459,0.789869 -0.1880306,1.096786 -0.041275,0.06562 -0.061383,0.09807 -0.1167695,0.169686 0.2656417,0.04445 0.5464529,-0.106186 0.7334251,-0.320322 0.017992,0.03175 0.046567,0.0822 0.058561,0.131233 0.1964972,-0.188383 0.2278945,-0.536222 0.155575,-0.812094 0.1280584,0.03704 0.2434167,-0.04092 0.288925,-0.149578 -0.2959805,-0.03916 -0.4938889,-0.320322 -0.4473222,-0.62865 0.027869,-0.182386 0.1887361,-0.381353 0.4071056,-0.407106 0.5693833,-0.06703 0.7366,0.510117 0.7284861,1.057628 -0.010231,0.694267 -0.4293306,1.461206 -0.8004528,2.239081 -0.2988028,0.626533 -0.6378223,1.262239 -0.6723945,1.857022 -0.038453,0.660047 0.2638778,1.839383 1.9057057,1.583972 0.065969,-0.191558 0.1467555,-0.266347 0.1957917,-0.244122 0.015875,0.0081 0.00423,0.03845 -0.00494,0.100189 -0.029633,0.2032 -0.039511,0.329847 -0.029633,0.546806 0.019403,0.427566 0.2053167,0.854075 0.2271889,1.163108 0.034572,0.48895 -0.2176639,0.544689 -0.6170083,0.590197 -0.1679223,0.01905 -0.417689,0.0127 -0.5704417,0.08608 -0.0889,0.04269 -0.1471084,0.263172 -0.2335389,0.373944 -0.085372,0.109009 -0.2028473,0.164042 -0.3450167,0.191559 0.043039,0.110067 0.1915583,0.189089 0.352425,0.193322 0.058208,-0.04339 0.1220611,-0.147108 0.1488722,-0.271286 0.00564,-0.02575 0.037042,-0.0441 0.033867,0.05151 -0.00882,0.257175 -0.2458861,0.537633 -0.5104695,0.577497 0.047625,0.122766 0.2353028,0.215194 0.3817056,0.198261 0.1150056,-0.06138 0.2060222,-0.170745 0.2480028,-0.325614 0.010583,-0.0441 0.038806,-0.02434 0.037042,0.03387 -0.00318,0.153105 -0.08255,0.278341 -0.1862667,0.373944 -0.1040695,0.09596 -0.17145,0.223308 -0.1375834,0.372886 0.068792,-0.03422 0.2014362,-0.04163 0.3009195,-0.01975 0.050447,-0.04727 0.1213556,-0.126295 0.1418167,-0.240595 0.0067,-0.0381 0.045508,-0.02999 0.038806,0.05962 -0.015875,0.21343 -0.1912055,0.310444 -0.1464028,0.512233 0.417689,-0.199672 0.4635501,0.542925 0.7884584,0.766586 0.269875,0.185561 0.7690556,0.07444 1.2234334,0.107245 0.032808,-0.200025 0.1601612,-0.404989 0.3376084,-0.442736 -0.075847,-0.28575 -0.4071056,-0.275167 -0.5588,-0.176389 -0.033161,0.02187 -0.023636,-0.02187 0.013758,-0.05256 0.18415,-0.136878 0.4504972,-0.09525 0.57785,0.06279 0.031045,-0.05785 0.092428,-0.105128 0.1425223,-0.113594 -0.1308806,-0.27305 -0.443089,-0.324556 -0.6688667,-0.185914 -0.040922,0.02646 -0.028928,-0.03316 0.043039,-0.07479 0.2705806,-0.156633 0.557389,-0.03422 0.6847418,0.166511 0.025753,-0.04304 0.081844,-0.09596 0.1248833,-0.09278 -0.074083,-0.177094 -0.2670528,-0.301977 -0.5125862,-0.297391 -0.4261555,0.0078 -0.7852833,0.291041 -0.9412111,0.07232 -0.1756834,-0.24765 -0.3937,-0.698147 -0.4109862,-1.235428 0,-0.04551 0.00176,-0.08784 0.042333,-0.102658 0.3298472,-0.07514 0.6417028,-0.136878 0.92075,-0.227542 0.2995084,-0.09737 0.5979584,-0.201083 0.8124473,-0.452966 0.2286,-0.268111 0.2910417,-0.873125 0.3302,-1.363839 0.018344,-0.234598 0.041628,-0.581378 0.059619,-0.838553 0.028928,-0.411339 0.1157111,-0.674158 0.2765778,-0.750006 0.040922,-0.0187 0.061031,0.0011 0.029633,0.05786 -0.040922,0.06773 -0.075142,0.194733 -0.091017,0.310092 0.071614,-0.05574 0.1643945,-0.117475 0.2286001,-0.1524 0.2113139,-0.1143 0.352425,-0.176389 0.5849055,-0.298451 0.2222501,-0.116416 0.4353278,-0.271286 0.5940779,-0.395816 0.1001889,-0.07867 0.2169583,-0.173567 0.3175,-0.308681 -0.024694,-0.03281 -0.050095,-0.07585 -0.062794,-0.10548 -0.1132416,0.152752 -0.3464278,0.2794 -0.5298722,0.263525 0.048683,-0.153811 -0.00706,-0.368653 -0.1358195,-0.474839 -0.1425222,-0.117122 -0.231775,-0.182739 -0.3217333,-0.281517 -0.2995084,-0.328083 -0.043744,-1.020586 -0.3510139,-1.438275 -0.02152,-0.04304 0.025047,-0.0314 0.075494,0.01623 0.1785056,0.169333 0.2123722,0.429683 0.2494139,0.690739 0.027869,0.195791 0.039158,0.42933 0.1322917,0.575733 0.1658056,0.260703 0.5439834,0.318206 0.5274028,0.710847 0.1202972,-0.0321 0.2684639,-0.148166 0.2744611,-0.250825 -0.00564,-0.04692 -0.028928,-0.152752 -0.09278,-0.200377 -0.015875,-0.01199 -0.006,-0.03598 0.041628,-0.02117 0.089253,0.02787 0.1329973,0.137583 0.1710973,0.218017 0.041275,0.08714 0.083961,0.166158 0.1446389,0.236361 0.1090083,0.126294 0.2430639,0.190147 0.2614083,0.394758 0.1012473,-0.0314 0.2360084,-0.135819 0.2480028,-0.270228 -0.053622,-0.152753 -0.01905,-0.29598 -0.1774472,-0.401108 -0.021167,-0.01411 -0.011289,-0.04939 0.074789,-0.01341 0.2021417,0.08502 0.17145,0.32632 0.2695222,0.458611 0.065617,0.08855 0.1439334,0.162984 0.2769306,0.192617 0.014111,-0.123825 0.067028,-0.25788 0.1767417,-0.329142 -0.010583,-0.06879 -0.020814,-0.109713 -0.098425,-0.170744 -0.021167,-0.01658 -0.017286,-0.04939 0.070908,-0.0046 0.1834445,0.09278 0.1298222,0.354189 0.3750023,0.457905 0.0695,-0.216252 0.333728,-0.141816 0.5842,-0.07691 0.124883,0.03245 0.278342,0.07055 0.412397,0.07691 0.49777,0.02434 0.58032,-0.310091 1.016706,-0.418747 -0.03104,-0.217664 0.01376,-0.416983 0.153106,-0.500591 -0.182387,-0.215548 -0.484012,-0.105128 -0.586317,0.04233 -0.02258,0.02963 -0.01976,-0.02258 0.01517,-0.07267 0.131234,-0.198261 0.397228,-0.218723 0.559153,-0.124178 -0.0035,-0.06773 0.02258,-0.178506 0.06421,-0.181328 -0.119239,-0.134056 -0.468842,-0.189089 -0.658284,0.04022 -0.02293,0.02575 -0.01729,-0.02399 0.01023,-0.06456 0.138289,-0.189089 0.449792,-0.242358 0.661105,-0.08467 -0.0018,-0.0441 0.02081,-0.1397 0.07267,-0.141817 -0.08925,-0.105481 -0.267053,-0.167569 -0.440973,-0.150283 -0.501297,0.05045 -0.638527,0.603955 -1.179336,0.558447 -0.124883,-0.01023 -0.245886,-0.09066 -0.487891,-0.17392 -0.126648,-0.04339 -0.282575,-0.08678 -0.4233334,-0.119591 -0.3869972,-0.09066 -0.746125,-0.0956 -0.9457973,-0.356306 -0.067028,-0.08784 -0.1252361,-0.194028 -0.1478139,-0.350661 -0.012347,-0.07197 0.015875,-0.104775 0.035983,-0.05644 0.1185333,0.233186 0.2427111,0.449439 0.5372805,0.506589 0.1206501,-0.229306 0.2106084,-0.620184 0.1957917,-0.958498 -0.1284111,-0.0575 -0.1273528,-0.115711 -0.1686278,-0.13335 0.018344,0.257175 -0.077964,0.525639 -0.1583972,0.60572 -0.036689,-0.240595 -0.2367139,-0.4191 -0.4427361,-0.474839 -0.026458,-0.0071 -0.029986,-0.05045 0.082197,-0.04269 0.075494,0.0049 0.2525889,0.05186 0.3305528,0.155222 0.071261,-0.248003 0.028928,-0.479778 -0.058914,-0.705203 -0.047272,-0.121708 -0.1605139,-0.281164 -0.2864556,-0.373592 -0.027164,-0.01975 -0.015875,-0.0508 0.073378,-0.0049 0.2289528,0.11818 0.4053417,0.349602 0.4441473,0.670277 0.1210027,0.07091 0.1718027,0.228953 0.3414889,0.183798 -0.1453445,-0.162984 -0.072672,-0.436034 -0.3019778,-0.833262 -0.1217084,-0.210961 -0.2853973,-0.363008 -0.5602112,-0.497769 -0.3386667,-0.166511 -0.7468306,-0.283633 -1.0082389,-0.388056 -0.2741084,-0.109713 -0.4258028,-0.231422 -0.4617862,-0.626886 -0.091722,-0.04127 -0.1456972,-0.100189 -0.2003778,-0.16898 -0.049742,0.04339 -0.080433,0.139347 -0.08255,0.201789 -0.1778,-0.08573 -0.2726972,-0.2667 -0.2896305,-0.424745 -0.055739,0.0081 -0.1682751,0.329847 -0.5806723,0.176036 0.2451806,-0.255764 -0.090311,-0.457553 0.1735667,-0.762 0.049742,-0.06138 0.1241778,-0.07726 0.091369,-0.0314 -0.2409472,0.344664 0.049742,0.463197 -0.062794,0.688622 0.2610556,0.02434 0.2765778,-0.320675 0.5055306,-0.315383 -0.03175,0.152753 0.00388,0.361597 0.097014,0.426508 0.05468,-0.09666 0.1220611,-0.160161 0.2229555,-0.199319 0.04445,0.189089 0.1781528,0.290689 0.3411362,0.326672 0.2465916,0.05468 0.523875,-0.09102 0.7253111,-0.06244 0.1217084,0.01693 0.2300111,0.08855 0.2737556,0.190853 0.1005417,-0.09842 0.1926167,-0.471664 0.1524,-0.499533 -0.3922889,-0.245181 -1.0283473,0.280458 -1.2139084,-0.163689 -0.032808,-0.07867 -0.049036,-0.178858 -0.035278,-0.267758 0.055033,-0.358423 0.2924528,-0.531637 0.7189612,-0.500592 0.1869722,0.0134 0.5972528,0.1016 0.7066139,0.02046 0.090664,-0.06738 0.065617,-0.320675 0.010583,-0.431095 -0.1100666,-0.02963 -0.2377722,-0.103716 -0.2314222,-0.185208 0.0067,-0.07232 0.074083,0.07973 0.2208389,0.03422 0.041275,-0.01835 0.0635,-0.167217 0.036689,-0.176389 -0.2356556,-0.08784 -0.5598584,-0.143228 -0.8466667,-0.112889 -0.042333,0.128058 -0.1432278,0.141111 -0.1516945,0.239183 -0.014817,0.168628 -0.067381,0.306917 -0.1389944,0.36195 -0.027517,0.0187 -0.025753,-0.0095 -0.00953,-0.06315 0.020461,-0.06562 0.043744,-0.175331 0.0127,-0.243064 -0.065264,-0.143581 -0.3460751,-0.123472 -0.3524251,-0.281869 -0.00423,-0.06491 0.033514,-0.0575 0.3115028,0.0071 0.1174751,0.02752 0.1291167,0.02928 0.1460501,-0.0067 0.046214,-0.103716 -0.1132417,-0.159455 -0.2536473,-0.193322 -0.422275,-0.101953 -0.8117417,-0.0889 -0.9768417,-0.02469 0.1668639,0.07902 0.2099028,0.23883 0.1573389,0.314677 -0.036689,0.04868 -0.010583,-0.07867 -0.1982611,-0.191558 -0.2049639,-0.123825 -0.566914,-0.14358 -0.6374695,-0.0441 -0.039864,0.05609 -0.0508,0.222955 -0.038453,0.298803 0.020814,0.129822 0.062794,0.257527 0.206375,0.353836 0.1975556,0.132291 0.3305528,0.05856 0.3118556,0.100894 -0.041628,0.08961 -0.2991556,0.07691 -0.4497917,-0.04304 -0.1248834,-0.09948 -0.2180167,-0.230716 -0.2423584,-0.417336 -0.016933,-0.132291 7.056e-4,-0.331611 0.061383,-0.403578 0.081844,-0.09737 0.3146778,-0.118533 0.5323417,-0.0762 0.1753305,-0.05362 0.4074583,-0.08749 0.5856111,-0.07479 C 6.8824658,-26.167177 6.6351685,-26.2208 6.4171519,-26.22715 Z m 1.2548306,1.970617 c 0.2024945,-0.167922 0.4956528,-0.231069 0.9256889,-0.157692 -0.00353,-0.07338 -0.044803,-0.180622 -0.079375,-0.231775 -0.4307416,-0.07126 -0.8374945,-0.07796 -0.8463139,0.389467 z m 0.9697862,-0.392642 c 0.023283,0.05468 0.039158,0.116064 0.042686,0.138642 0.00353,0.02399 0.00212,0.04516 0.014817,0.03881 0.04198,-0.02117 0.1135944,-0.116064 0.1255889,-0.182034 -0.050095,0.0088 -0.1400528,0.0074 -0.1830917,0.0046 z m -0.9140473,0.556331 c 0.051858,0.173214 0.3605389,0.0088 0.6014861,-0.0078 0.075847,-0.06244 0.1347612,-0.125942 0.1668639,-0.181681 -0.2945694,-0.05891 -0.6194778,-0.02046 -0.76835,0.189442 z m 0.8509,-0.140758 c -0.00847,-0.0042 -0.014817,0.01517 -0.028222,0.03563 -0.018344,0.02822 -0.049036,0.07126 -0.09278,0.109009 0.041981,-0.0025 0.123825,0.0032 0.1622778,0.01164 0.00459,-0.05644 -0.028928,-0.150283 -0.041275,-0.15628 z m 2.7932946,0.37853 c -0.08008,-0.0381 -0.232128,-0.05785 -0.336197,0.0021 -0.03422,0.02999 0.0088,0.07126 0.106891,0.09137 0.07585,-0.03598 0.156987,-0.05115 0.223309,-0.05327 0,-0.01623 0.0021,-0.02222 0.006,-0.04022 z m -0.472017,0.706967 c -0.05503,-0.150636 -0.04515,-0.26282 0.01482,-0.392995 0.02928,-0.0635 0.09701,-0.135819 0.142522,-0.170038 -0.07973,-0.01764 -0.109714,-0.05891 -0.119591,-0.0949 -0.432506,0.23107 -0.207081,0.67945 -0.251531,1.078089 -0.02787,0.248003 -0.3429,0.336903 -0.549981,0.466725 -0.1785051,0.111478 -0.3534829,0.231775 -0.4762496,0.357364 0.2229556,0.528461 0.070203,0.644173 0.3192639,0.899584 -0.042333,0.0508 -0.1220611,0.08643 -0.1806222,0.08678 -0.00353,0.223661 -0.023283,0.426508 -0.080786,0.626533 0.1820333,-0.07408 0.3174999,0.04904 0.4695469,-0.09913 -0.1397,-0.106539 -0.145344,-0.303742 -0.109714,-0.413809 0.02081,-0.0635 0.04798,-0.05574 0.04798,-0.0381 -3.53e-4,0.0321 0.0039,0.06103 0.01129,0.08185 0.08114,0.02081 0.252942,0.02928 0.366536,-0.04551 -0.194028,-0.332317 0.1778,-0.62477 0.459317,-0.808567 0.195086,-0.127706 0.476955,-0.268464 0.616303,-0.456495 0.187677,-0.253647 0.0956,-0.529519 0.216252,-0.904875 -0.141816,-0.07126 -0.329847,-0.211314 -0.309033,-0.41275 -0.149225,0.0187 -0.324203,0.203553 -0.228247,0.51682 0.01587,0.05397 -0.01693,0.03845 -0.04833,-0.01235 -0.122061,-0.229306 -0.01305,-0.49142 0.125942,-0.567973 -0.07796,-0.05009 -0.143228,-0.147461 -0.135114,-0.199672 -0.226131,0.0822 -0.297744,0.278694 -0.249061,0.539397 0.0078,0.03845 -0.02399,0.03986 -0.05151,-0.03598 z m 0.820562,-0.40252 c -0.08008,-0.07761 -0.28575,-0.173213 -0.433564,-0.12453 -0.01199,0.05997 0.07126,0.140758 0.131233,0.176742 0.07267,-0.02752 0.174978,-0.03916 0.284692,-0.01411 0.0046,-0.01129 0.01023,-0.02328 0.01764,-0.0381 z m 0.221897,0.333375 c -0.08467,-0.131938 -0.259997,-0.182738 -0.351367,-0.173919 -0.03175,0.128764 0.135114,0.277636 0.24765,0.319264 0.03598,-0.08185 0.07161,-0.12312 0.103717,-0.145345 z m 0.500944,3.548945 c 0.05997,0.06279 0.121709,0.15487 0.150989,0.235656 0.0099,-0.0028 0.02681,-0.0067 0.03775,-0.0067 0.0071,-0.106892 -0.05927,-0.297392 -0.147108,-0.373239 -0.0381,-0.01058 -0.05186,0.09525 -0.04163,0.144286 z m 0.131586,0.5461 c 0.0028,-0.150283 -0.07902,-0.35948 -0.167569,-0.436033 -0.04304,0.0071 -0.05186,0.108655 -0.04692,0.176036 0.08431,0.07267 0.140406,0.179564 0.16757,0.268111 0.01587,-0.0035 0.03387,-0.0074 0.04692,-0.0081 z m -0.234597,-0.09278 c -0.125236,0.08467 -0.125589,0.28328 -0.103717,0.409575 0.06632,-0.01199 0.121003,-0.0095 0.179212,0.0085 0.03986,-0.131233 -3.53e-4,-0.341489 -0.0755,-0.418041 z m -2.180167,5.650442 c -0.4046358,-0.04127 -0.7941025,0.32138 -1.0488081,0.160866 -0.1164166,-0.07302 -0.2712861,-0.240594 -0.3848806,-0.406752 -0.071614,-0.104775 -0.2726972,-0.404989 -0.2543527,-0.525639 0.00741,-0.0501 0.087489,-0.08714 0.2286,-0.176742 0.2465916,-0.156281 0.4677833,-0.312208 0.6731,-0.478014 0.2497667,-0.201789 0.6339414,-0.506236 0.6378224,-0.9017 0.0025,-0.272345 -0.1770946,-0.568325 -0.3175001,-0.750006 -0.2469445,-0.319616 -0.671689,-0.624064 -1.0763251,-0.854427 -0.1781528,-0.1016 -0.5104695,-0.274814 -0.7175501,-0.357364 -0.2042583,0.115005 -0.3044472,0.145697 -0.4773083,0.23883 0.1266472,0.0508 0.2307167,0.132645 0.2102555,0.202495 -0.013053,0.04339 -0.044803,0.05256 -0.1964972,0.153811 -0.088547,0.05891 -0.1972028,0.144286 -0.24765,0.190853 -0.1114778,0.102305 -0.1725083,0.216252 -0.2674056,0.329141 -0.057503,0.06844 -0.094192,0.09384 -0.1520472,0.137231 -3.528e-4,0.05715 -0.00388,0.109008 -0.00706,0.181328 0.6604001,0.0187 1.2576529,0.210255 1.5458724,0.579614 0.040922,0.05256 0.1051277,0.143933 0.1305277,0.212372 0.1298223,0.344664 -0.090311,0.625828 -0.2748139,0.747889 -0.1837972,0.121002 -0.6018389,0.194733 -0.7196667,0.306211 -0.090664,0.08573 -0.09913,0.240594 -0.2070805,0.37465 -0.048331,0.06033 -0.1054806,0.09666 -0.1735667,0.135467 0.037042,0.0695 0.1781528,0.130527 0.2790472,0.119944 0.039158,-0.0381 0.077964,-0.06421 0.1185334,-0.125589 0.030692,-0.04657 0.058208,-0.121708 0.055739,-0.204611 -3.527e-4,-0.02046 0.028575,-0.04339 0.041981,0.0254 0.065617,0.343253 -0.3330222,0.383117 -0.2614083,0.766939 0.073378,-0.04904 0.1901472,-0.107245 0.3153833,-0.07585 0.03175,-0.06668 0.076553,-0.106186 0.1128889,-0.163336 0.021872,-0.03422 0.047625,-0.08784 0.044097,-0.186267 -7.055e-4,-0.02505 0.032808,-0.03457 0.046567,0.05221 0.039511,0.247297 -0.2218972,0.310092 -0.1139472,0.701322 0.070555,-0.06103 0.1742722,-0.08784 0.2737555,-0.08502 0.026106,-0.05503 0.089253,-0.112184 0.074083,-0.236009 -0.00317,-0.02752 0.026105,-0.05539 0.047978,0.03634 0.043392,0.183444 -0.111125,0.252236 -0.03175,0.494241 0.2755194,-0.111478 0.3457222,0.08749 0.4677833,0.244828 0.06985,0.08996 0.161925,0.232128 0.2342445,0.287867 0.1852083,0.141816 0.7030861,0.0194 1.0957278,0.06103 0.0254,-0.21343 0.1636884,-0.40393 0.3319634,-0.444147 -0.07973,-0.264583 -0.4289773,-0.327025 -0.6007801,-0.150283 -0.026106,0.02646 -0.00988,-0.0441 0.041275,-0.08749 0.1651001,-0.139347 0.4610801,-0.09631 0.6074831,0.0949 0.02893,-0.07232 0.08573,-0.135819 0.128764,-0.137583 -0.123825,-0.263525 -0.4843637,-0.321734 -0.6826248,-0.160514 -0.015522,0.0127 -0.020461,-0.02222 0.034572,-0.07056 0.1531056,-0.134408 0.4808358,-0.12453 0.6741588,0.08114 0.01305,-0.07514 0.05221,-0.13088 0.09102,-0.13088 -0.05327,-0.08608 -0.198966,-0.194734 -0.3302,-0.208139 z m -2.9040665,-3.960989 c -0.2028473,0.07444 -0.4564945,0.246591 -0.4639028,0.294922 -0.017286,0.112183 -0.023989,0.27305 -0.023989,0.3937 0.1322917,-0.07691 0.1696861,-0.214136 0.3182056,-0.331259 0.2681111,-0.211313 0.3982861,-0.241652 0.384175,-0.272697 -0.031045,-0.05609 -0.1566334,-0.08467 -0.2144889,-0.08467 z m 3.3376305,4.558241 c 0.01729,-0.08784 0,-0.251177 -0.04657,-0.311502 -0.03281,-0.02081 -0.07091,0.04163 -0.08784,0.115358 0.0381,0.05503 0.08326,0.1397 0.09313,0.196144 0.01376,-0.0018 0.02646,-0.0018 0.04128,0 z m -0.294216,0.112889 c 0.03563,0.06421 0.06491,0.191206 0.06703,0.271286 0.01905,0.0011 0.04304,0.0011 0.06032,0.0064 0.05186,-0.15628 0.03457,-0.347133 -0.01729,-0.416277 -0.03175,-0.01023 -0.08643,0.07232 -0.110066,0.138641 z m -0.3312588,0.509764 c 0.071261,0.01164 0.1386418,0.04022 0.1777998,0.06562 0.03492,-0.05786 0.122767,-0.2921 0.07232,-0.420511 -0.144639,0.01376 -0.2522365,0.252236 -0.2501198,0.354894 z m -3.6332586,0.211667 c 0.052211,-0.153106 0.036689,-0.338314 -0.017639,-0.410986 -0.013758,-0.01835 -0.092781,0.02575 -0.1065389,0.08079 0.043392,0.07444 0.085372,0.227894 0.080786,0.321733 0.013758,0 0.029633,0.0021 0.043392,0.0085 z m -0.314325,-0.119592 c 0.048683,0.09455 0.075142,0.26035 0.061383,0.36195 0.017992,0.0021 0.040217,0.0092 0.060325,0.01764 0.039511,-0.09807 0.080433,-0.335844 -0.00811,-0.49283 -0.041275,0.0071 -0.1019528,0.05151 -0.1135945,0.113241 z m -0.3273778,0.541161 c 0.053975,0.01623 0.1121834,0.04904 0.1400528,0.09137 0.067733,-0.08114 0.1612195,-0.271639 0.12065,-0.447322 -0.1277055,-7.06e-4 -0.2458861,0.199319 -0.2607028,0.355952"
         style="fill:#e6e6e6;fill-opacity:1;fill-rule:nonzero;stroke:none;stroke-width:0.0352778"
         id="path38599" />
      <path
         d="m 6.7561763,-25.395011 c -0.01905,0.08996 -0.097014,0.112183 -0.097367,0.04516 -0.00106,-0.192264 -0.2017889,-0.289631 -0.414514,-0.308681 -0.056444,-0.0049 0,-0.04621 0.058561,-0.0515 0.2032,-0.0194 0.4970639,0.109008 0.4533194,0.31503"
         style="fill:#e6e6e6;fill-opacity:1;fill-rule:nonzero;stroke:none;stroke-width:0.0352778"
         id="path38601" />
      <path
         d="m 5.0215679,-23.68298 c -0.071967,0.409575 0.1495778,0.435328 0.1615722,0.736953 0.1474611,0.02787 0.3100917,-0.07937 0.3993445,-0.220487 0.014817,-0.02328 0.028575,7.06e-4 0.015875,0.05256 -0.052917,0.211667 -0.3234972,0.419453 -0.5842,0.328437 0.1171222,-0.27552 -0.2226028,-0.541162 -0.040922,-0.877712 0.035983,-0.06597 0.053269,-0.05327 0.048331,-0.01975"
         style="fill:#e6e6e6;fill-opacity:1;fill-rule:nonzero;stroke:none;stroke-width:0.0352778"
         id="path38603" />
      <path
         d="m 5.7518179,-22.572788 c 0.023636,-0.02928 0.044097,-0.02152 0.035631,0.0074 -0.2035528,0.678744 0.2970389,0.727075 0.3351389,1.311981 0.2081389,-0.05609 0.301625,-0.224367 0.3700639,-0.425451 0.016228,-0.05397 0.044097,-0.02399 0.040217,0.04868 -0.00811,0.150636 -0.049742,0.273755 -0.097719,0.346075 -0.085725,0.130528 -0.2811639,0.294217 -0.5291667,0.252942 0.1576917,-0.51047 -0.2719916,-0.700264 -0.27305,-1.158876 -3.528e-4,-0.106891 0.042333,-0.294216 0.1188861,-0.382763"
         style="fill:#e6e6e6;fill-opacity:1;fill-rule:nonzero;stroke:none;stroke-width:0.0352778"
         id="path38605" />
      <path
         d="m 8.4085875,-21.349355 c -0.016228,-0.02399 -0.017639,-0.06844 0.07232,0.01411 0.4060472,0.371828 0.006,1.019528 0.2783417,1.340203 -0.3739445,0.14605 -0.7316612,-0.112183 -0.7736417,-0.333022 -0.019403,-0.108656 0.058561,0.03634 0.1615722,0.104775 0.086431,0.05715 0.2550583,0.116064 0.3429,0.09631 -0.104775,-0.398639 0.2187223,-0.7366 -0.081492,-1.222375"
         style="fill:#e6e6e6;fill-opacity:1;fill-rule:nonzero;stroke:none;stroke-width:0.0352778"
         id="path38607" />
    </g>
  </g>
</svg>
